<?xml version="1.0" encoding="UTF-8" standalone="no"?>
<svg
   viewBox="0 0 250 1063.18"
   version="1.1"
   id="svg1361"
   sodipodi:docname="dots-vertical-thin2.svg"
   width="250"
   height="1063.1801"
   inkscape:version="1.2.2 (732a01da63, 2022-12-09)"
   xmlns:inkscape="http://www.inkscape.org/namespaces/inkscape"
   xmlns:sodipodi="http://sodipodi.sourceforge.net/DTD/sodipodi-0.dtd"
   xmlns="http://www.w3.org/2000/svg"
   xmlns:svg="http://www.w3.org/2000/svg">
  <defs
     id="defs1365" />
  <sodipodi:namedview
     id="namedview1363"
     pagecolor="#ffffff"
     bordercolor="#000000"
     borderopacity="0.25"
     inkscape:showpageshadow="2"
     inkscape:pageopacity="0.0"
     inkscape:pagecheckerboard="0"
     inkscape:deskcolor="#d1d1d1"
     showgrid="false"
     inkscape:zoom="0.96596997"
     inkscape:cx="-216.36283"
     inkscape:cy="528.48434"
     inkscape:window-width="3440"
     inkscape:window-height="1334"
     inkscape:window-x="-11"
     inkscape:window-y="-11"
     inkscape:window-maximized="1"
     inkscape:current-layer="svg1361" />
  <path
     d="m 126.84578,21.333 c 61.953,0 112.176,50.222 112.176,112.175 0,61.953 -50.222,112.175 -112.176,112.175 -61.950006,0 -112.174006,-50.222 -112.174006,-112.175 0.08,-61.92 50.254,-112.095 112.167006,-112.175 h 0.008 z m 0,177.804 c 36.247,0 65.63,-29.383 65.63,-65.63 0,-36.247 -29.383,-65.627 -65.63,-65.627 -36.245003,0 -65.628006,29.382 -65.628006,65.628 0.053,36.225 29.404003,65.576 65.624006,65.63 h 0.005 z m 0,222.02 c 61.953,0 112.176,50.223 112.176,112.176 0,61.953 -50.222,112.175 -112.176,112.175 -61.950006,0 -112.174006,-50.222 -112.174006,-112.175 0.08,-61.92 50.254,-112.095 112.167006,-112.175 h 0.008 z m 0,177.805 c 36.247,0 65.63,-29.383 65.63,-65.63 0,-36.247 -29.383,-65.628 -65.63,-65.628 -36.245003,0 -65.628006,29.383 -65.628006,65.63 0.053,36.224 29.404003,65.575 65.624006,65.628 h 0.005 z m 0,222.022 c 61.953,0 112.176,50.222 112.176,112.175 0,61.953 -50.222,112.174 -112.175,112.174 -61.950006,0 -112.174006,-50.222 -112.174006,-112.175 0.08,-61.92 50.254,-112.096 112.167006,-112.176 h 0.008 z m 0,177.804 c 36.247,0 65.63,-29.383 65.63,-65.63 0,-36.247 -29.383,-65.628 -65.63,-65.628 -36.245003,0 -65.628006,29.383 -65.628006,65.63 0.053,36.224 29.404003,65.575 65.624006,65.628 h 0.005 z"
     id="path1359"
     style="fill:#4b4b53;fill-opacity:1" />
  <ellipse
     style="fill:#4b4b53;fill-opacity:1"
     id="path6993"
     cx="119.56893"
     cy="131.99168"
     rx="83.335922"
     ry="84.371155" />
  <ellipse
     style="fill:#4b4b53;fill-opacity:1"
     id="path6995"
     cx="123.19224"
     cy="526.93152"
     rx="102.48766"
     ry="106.62857" />
  <ellipse
     style="fill:#4b4b53;fill-opacity:1"
     id="path6997"
     cx="130.95645"
     cy="926.52985"
     rx="92.652985"
     ry="105.59335" />
</svg>
